{"title":"Nazis.at.the.Center.of.the.Earth.2012.BRRip.XviD.Ac3.Feel-Free","uid":7202938,"size":1047564089,"categoryP":"video","categoryS":"movies","magnet":"?xt=urn:btih:1ebb0eccbccf8fc1922b75385b3d27b00d64d262&amp;dn=Nazis.at.the.Center.of.the.Earth.2012.BRRip.XviD.Ac3.Feel-Free&amp;tr=udp%3A%2F%2Ftracker.openbittorrent.com%3A80&amp;tr=udp%3A%2F%2Fopen.demonii.com%3A1337&amp;tr=udp%3A%2F%2Ftracker.coppersurfer.tk%3A6969&amp;tr=udp%3A%2F%2Fexodus.desync.com%3A6969","seeders":2,"leechers":1,"uploader":"Lewrid","files":8,"time":1334998767,"description":"Genre: Horror | Thriller\nLanguage:English\nIMDb:http://www.imdb.com/title/tt2130142/\nSource:BluRay.x264-ROVERS Thanks!\nEncoder:Tony\n\nFormat : AVI\nFormat/Info : Audio Video Interleave\nFile size : 998 MiB\nDuration : 1h 29mn\nOverall bit rate : 1 556 Kbps\n\nVideo\nID : 0\nFormat : MPEG-4 Visual\nFormat profile : Advanced Simple@L5\nFormat settings, BVOP : 1\nFormat settings, QPel : No\nFormat settings, GMC : No warppoints\nFormat settings, Matrix : Default (H.263)\nCodec ID : XVID\nCodec ID/Hint : XviD\nDuration : 1h 29mn\nBit rate : 1 099 Kbps\nWidth : 640 pixels\nHeight : 360 pixels\nDisplay aspect ratio : 16:9\nFrame rate : 23.976 fps\nColor space : YUV\nChroma subsampling : 4:2:0\nBit depth : 8 bits\nScan type : Progressive\nCompression mode : Lossy\nBits/(Pixel*Frame) : 0.199\nStream size : 704 MiB (71%)\nWriting library : XviD 1.2.1 (UTC 2008-12-04) &lt;a href=&quot;\nhttp://img585.imageshack.us/img585/2701/vlcsnap2012042109h04m10.png&quot; rel=&quot;nofollow&quot; target=&quot;_NEW&quot;&gt;\nhttp://img585.imageshack.us/img585/2701/vlcsnap2012042109h04m10.png&lt;/a&gt; &lt;a href=&quot;\nhttp://img51.imageshack.us/img51/784/vlcsnap2012042109h04m21.png&quot; rel=&quot;nofollow&quot; target=&quot;_NEW&quot;&gt;\nhttp://img51.imageshack.us/img51/784/vlcsnap2012042109h04m21.png&lt;/a&gt;\nAudio\nID : 1\nFormat : AC-3\nFormat/Info : Audio Coding 3\nMode extension : CM (complete main)\nCodec ID : 2000\nDuration : 1h 29mn\nBit rate mode : Constant\nBit rate : 448 Kbps\nChannel(s) : 6 channels\nChannel positions : Front: L C R, Side: L R, LFE\nSampling rate : 48.0 KHz\nBit depth : 16 bits\nCompression mode : Lossy\nStream size : 287 MiB (29%)\nAlignment : Aligned on interleaves\nInterleave, duration : 42 ms (1.00 video frame)\nInterleave, preload duration : 512 ms","torrent":{"xt":"urn:btih:1ebb0eccbccf8fc1922b75385b3d27b00d64d262","amp;dn":"Nazis.at.the.Center.of.the.Earth.2012.BRRip.XviD.Ac3.Feel-Free","amp;tr":["udp%3A%2F%2Ftracker.openbittorrent.com%3A80","udp%3A%2F%2Fopen.demonii.com%3A1337","udp%3A%2F%2Ftracker.coppersurfer.tk%3A6969","udp%3A%2F%2Fexodus.desync.com%3A6969"],"infoHash":"1ebb0eccbccf8fc1922b75385b3d27b00d64d262","infoHashBuffer":{"type":"Buffer","data":[30,187,14,204,188,207,143,193,146,43,117,56,91,61,39,176,13,100,210,98]},"announce":[],"urlList":[]}}